<svg xmlns="http://www.w3.org/2000/svg" width="77" height="45" viewBox="0 0 77 45" fill="none"><path d="M12.1952 20.4782C12.1952 19.6618 12.857 19 13.6734 19H41.7593C42.5756 19 43.2375 19.6618 43.2375 20.4782V28.6083C43.2375 29.4247 42.5756 30.0865 41.7593 30.0865H13.6734C12.857 30.0865 12.1952 29.4247 12.1952 28.6083V20.4782Z" fill="white"></path><path d="M0 34.5211C0 33.7048 0.661814 33.0429 1.4782 33.0429H25.1295C25.9458 33.0429 26.6077 33.7048 26.6077 34.5211V42.6513C26.6077 43.4676 25.9458 44.1295 25.1295 44.1295H1.4782C0.661815 44.1295 0 43.4676 0 42.6513V34.5211Z" fill="white"></path><path d="M28.825 33.782C28.825 32.9656 29.4868 32.3038 30.3032 32.3038H41.7592C42.5756 32.3038 43.2374 32.9656 43.2374 33.782V42.6513C43.2374 43.4676 42.5756 44.1295 41.7592 44.1295H30.3032C29.4868 44.1295 28.825 43.4676 28.825 42.6513V33.782Z" fill="white"></path><path fill-rule="evenodd" clip-rule="evenodd" d="M21.5 14C22.3284 14 23 13.3284 23 12.5V12.5C23 11.6716 23.6716 11 24.5 11H64C65.1046 11 66 11.8954 66 13V31C66 32.1046 65.1046 33 64 33H56C54.8954 33 54 33.8954 54 35V42C54 43.1046 54.8954 44 56 44H73C75.2091 44 77 42.2091 77 40V4C77 1.79086 75.2091 0 73 0H16C13.7909 0 12 1.79086 12 4V12C12 13.1046 12.8954 14 14 14H21.5Z" fill="white"></path></svg>