<svg xmlns="http://www.w3.org/2000/svg" width="143" height="41" viewBox="0 0 143 41" fill="none"><path d="M31.8145 31V12.6807H34.6709V28.5371H43.2021V31H31.8145ZM50.832 31.2666C49.5286 31.2666 48.403 30.9831 47.4551 30.416C46.5072 29.849 45.7793 29.0492 45.2715 28.0166C44.7637 26.9756 44.5098 25.7526 44.5098 24.3477V24.335C44.5098 22.9385 44.7637 21.7155 45.2715 20.666C45.7878 19.6165 46.5072 18.7998 47.4297 18.2158C48.3522 17.6318 49.4398 17.3398 50.6924 17.3398C51.945 17.3398 53.0241 17.6234 53.9297 18.1904C54.8353 18.749 55.5335 19.5361 56.0244 20.5518C56.5153 21.5589 56.7607 22.7311 56.7607 24.0684V25.0078H45.8809V23.0527H55.4277L54.0693 24.8682V23.8018C54.0693 22.8623 53.9255 22.0794 53.6377 21.4531C53.3499 20.8268 52.9521 20.3613 52.4443 20.0566C51.945 19.752 51.3652 19.5996 50.7051 19.5996C50.0449 19.5996 49.4567 19.7604 48.9404 20.082C48.4242 20.4036 48.0179 20.8776 47.7217 21.5039C47.4255 22.1302 47.2773 22.8962 47.2773 23.8018V24.8809C47.2773 25.7441 47.4212 26.4847 47.709 27.1025C48.0052 27.7204 48.4242 28.1943 48.9658 28.5244C49.5075 28.846 50.1507 29.0068 50.8955 29.0068C51.4456 29.0068 51.9281 28.9264 52.3428 28.7656C52.7575 28.5964 53.1003 28.3763 53.3711 28.1055C53.6504 27.8262 53.8451 27.5257 53.9551 27.2041L53.9805 27.1025H56.6084L56.583 27.2295C56.473 27.7458 56.2656 28.2451 55.9609 28.7275C55.6647 29.21 55.2712 29.6458 54.7803 30.0352C54.2894 30.416 53.7139 30.7165 53.0537 30.9365C52.3936 31.1566 51.653 31.2666 50.832 31.2666ZM62.8926 31.2412C62.0124 31.2412 61.2337 31.0719 60.5566 30.7334C59.888 30.3949 59.3633 29.9209 58.9824 29.3115C58.61 28.7021 58.4238 27.9997 58.4238 27.2041V27.1787C58.4238 26.3916 58.6185 25.7145 59.0078 25.1475C59.4056 24.5804 59.9769 24.1318 60.7217 23.8018C61.4665 23.4717 62.3636 23.277 63.4131 23.2178L68.4658 22.9131V24.8555L63.7812 25.1475C62.9518 25.1898 62.3128 25.3844 61.8643 25.7314C61.4242 26.07 61.2041 26.527 61.2041 27.1025V27.1279C61.2041 27.7119 61.4242 28.1774 61.8643 28.5244C62.3128 28.863 62.9095 29.0322 63.6543 29.0322C64.2975 29.0322 64.873 28.901 65.3809 28.6387C65.8971 28.3678 66.3034 28.0039 66.5996 27.5469C66.9043 27.0898 67.0566 26.5736 67.0566 25.998V21.9736C67.0566 21.2458 66.8239 20.6745 66.3584 20.2598C65.9014 19.8366 65.2454 19.625 64.3906 19.625C63.6035 19.625 62.9688 19.79 62.4863 20.1201C62.0039 20.4502 61.7035 20.8818 61.585 21.415L61.5596 21.5293H58.9697L58.9824 21.3896C59.0501 20.6195 59.3083 19.9297 59.7568 19.3203C60.2139 18.7109 60.8402 18.2285 61.6357 17.873C62.4313 17.5176 63.375 17.3398 64.4668 17.3398C65.5586 17.3398 66.5023 17.5218 67.2979 17.8857C68.1019 18.2497 68.7197 18.766 69.1514 19.4346C69.5915 20.0947 69.8115 20.8734 69.8115 21.7705V31H67.0566V28.918H66.9805C66.7266 29.3835 66.3923 29.7939 65.9775 30.1494C65.5628 30.4964 65.0931 30.7673 64.5684 30.9619C64.0521 31.1481 63.4935 31.2412 62.8926 31.2412ZM72.5918 31V17.6064H75.3467V19.8789H75.4229C75.6344 19.0918 76.0153 18.474 76.5654 18.0254C77.1156 17.5768 77.7757 17.3525 78.5459 17.3525C78.749 17.3525 78.9352 17.3652 79.1045 17.3906C79.2822 17.4076 79.4219 17.4287 79.5234 17.4541V20.0186C79.4049 19.9678 79.2314 19.9297 79.0029 19.9043C78.7829 19.8704 78.5374 19.8535 78.2666 19.8535C77.6742 19.8535 77.1579 19.9805 76.7178 20.2344C76.2777 20.4798 75.9391 20.8395 75.7021 21.3135C75.4652 21.7874 75.3467 22.3545 75.3467 23.0146V31H72.5918ZM81.3008 31V17.6064H84.0557V19.625H84.1318C84.4873 18.9395 85.0036 18.3893 85.6807 17.9746C86.3662 17.5514 87.2126 17.3398 88.2197 17.3398C89.6924 17.3398 90.8307 17.7842 91.6348 18.6729C92.4473 19.5615 92.8535 20.7803 92.8535 22.3291V31H90.0859V22.8623C90.0859 21.8467 89.849 21.068 89.375 20.5264C88.9095 19.9847 88.1986 19.7139 87.2422 19.7139C86.599 19.7139 86.0361 19.8577 85.5537 20.1455C85.0798 20.4333 84.7116 20.8395 84.4492 21.3643C84.1868 21.8805 84.0557 22.4857 84.0557 23.1797V31H81.3008ZM95.6973 31V17.6064H98.4648V31H95.6973ZM97.0811 15.5117C96.6325 15.5117 96.2516 15.3551 95.9385 15.042C95.6253 14.7288 95.4688 14.3564 95.4688 13.9248C95.4688 13.4762 95.6253 13.0996 95.9385 12.7949C96.2516 12.4818 96.6325 12.3252 97.0811 12.3252C97.5381 12.3252 97.9189 12.4818 98.2236 12.7949C98.5368 13.0996 98.6934 13.4762 98.6934 13.9248C98.6934 14.3564 98.5368 14.7288 98.2236 15.042C97.9189 15.3551 97.5381 15.5117 97.0811 15.5117ZM107.136 31.2666C105.832 31.2666 104.702 30.9831 103.746 30.416C102.798 29.849 102.066 29.0449 101.55 28.0039C101.034 26.9544 100.775 25.7145 100.775 24.2842V24.2715C100.775 22.8581 101.038 21.6351 101.562 20.6025C102.087 19.5615 102.824 18.7575 103.771 18.1904C104.719 17.6234 105.832 17.3398 107.11 17.3398C108.253 17.3398 109.239 17.5599 110.068 18C110.906 18.4401 111.562 19.0199 112.036 19.7393C112.519 20.4502 112.798 21.2246 112.874 22.0625L112.887 22.1641H110.259L110.233 22.0625C110.09 21.4023 109.759 20.8353 109.243 20.3613C108.727 19.8874 108.02 19.6504 107.123 19.6504C106.412 19.6504 105.79 19.8408 105.257 20.2217C104.732 20.5941 104.322 21.1273 104.025 21.8213C103.738 22.5153 103.594 23.3405 103.594 24.2969V24.3096C103.594 25.2829 103.742 26.1165 104.038 26.8105C104.334 27.5046 104.749 28.0378 105.282 28.4102C105.815 28.7741 106.438 28.9561 107.148 28.9561C107.995 28.9561 108.68 28.736 109.205 28.2959C109.73 27.8558 110.073 27.276 110.233 26.5566L110.259 26.4551H112.899L112.887 26.5439C112.785 27.4411 112.485 28.2451 111.985 28.9561C111.486 29.667 110.822 30.2298 109.992 30.6445C109.171 31.0592 108.219 31.2666 107.136 31.2666ZM120.732 31.2666C119.446 31.2666 118.325 30.9873 117.368 30.4287C116.42 29.8617 115.68 29.0576 115.146 28.0166C114.622 26.9756 114.359 25.7399 114.359 24.3096V24.2842C114.359 22.8538 114.622 21.6224 115.146 20.5898C115.68 19.5488 116.424 18.749 117.381 18.1904C118.337 17.6234 119.45 17.3398 120.72 17.3398C121.998 17.3398 123.111 17.6234 124.059 18.1904C125.015 18.749 125.756 19.5446 126.28 20.5771C126.813 21.6097 127.08 22.8454 127.08 24.2842V24.3096C127.08 25.7484 126.818 26.9883 126.293 28.0293C125.768 29.0618 125.028 29.8617 124.071 30.4287C123.123 30.9873 122.01 31.2666 120.732 31.2666ZM120.745 28.9561C121.465 28.9561 122.087 28.7741 122.611 28.4102C123.136 28.0462 123.542 27.5173 123.83 26.8232C124.126 26.1292 124.274 25.2913 124.274 24.3096V24.2842C124.274 23.3024 124.126 22.4688 123.83 21.7832C123.542 21.0892 123.132 20.5602 122.599 20.1963C122.065 19.8324 121.439 19.6504 120.72 19.6504C120.009 19.6504 119.387 19.8324 118.854 20.1963C118.329 20.5602 117.918 21.0892 117.622 21.7832C117.326 22.4688 117.178 23.3024 117.178 24.2842V24.3096C117.178 25.2913 117.322 26.1292 117.609 26.8232C117.906 27.5173 118.32 28.0462 118.854 28.4102C119.387 28.7741 120.017 28.9561 120.745 28.9561ZM129.314 31V17.6064H132.069V19.625H132.146C132.501 18.9395 133.017 18.3893 133.694 17.9746C134.38 17.5514 135.226 17.3398 136.233 17.3398C137.706 17.3398 138.844 17.7842 139.648 18.6729C140.461 19.5615 140.867 20.7803 140.867 22.3291V31H138.1V22.8623C138.1 21.8467 137.863 21.068 137.389 20.5264C136.923 19.9847 136.212 19.7139 135.256 19.7139C134.613 19.7139 134.05 19.8577 133.567 20.1455C133.093 20.4333 132.725 20.8395 132.463 21.3643C132.201 21.8805 132.069 22.4857 132.069 23.1797V31H129.314Z" fill="#1C1B1B"></path><path d="M0.751953 34L9.86084 20.2256L8.95508 23.2676V21.5415L0.837402 9.33936H5.41748L11.5186 18.8926H13.2788L10.7495 20.311L17.7734 9.33936H22.1143L13.7402 21.6611V23.4043L12.8345 20.3623L21.9604 34H17.4658L11.3135 24.6006H9.55322L12.0996 23.1992L5.00732 34H0.751953Z" fill="#FF9634"></path></svg>